# 3ds Max Wavefront OBJ Exporter v0.97b - (c)2007 guruware
# File Created: 12.11.2014 11:39:12

mtllib bullet.mtl

#
# object Sphere001
#

v  -0.0000 0.0000 -0.0000
v  0.0000 0.1237 -0.1917
v  -0.0537 0.1114 -0.1917
v  -0.0967 0.0771 -0.1917
v  -0.1206 0.0275 -0.1917
v  -0.1206 -0.0275 -0.1917
v  -0.0967 -0.0771 -0.1917
v  -0.0537 -0.1114 -0.1917
v  0.0000 -0.1237 -0.1917
v  0.0537 -0.1114 -0.1917
v  0.0967 -0.0771 -0.1917
v  0.1206 -0.0275 -0.1917
v  0.1206 0.0275 -0.1917
v  0.0967 0.0771 -0.1917
v  0.0537 0.1114 -0.1917
v  -0.0000 0.2051 -0.7101
v  -0.0890 0.1848 -0.7101
v  -0.1603 0.1279 -0.7101
v  -0.1999 0.0456 -0.7101
v  -0.1999 -0.0456 -0.7101
v  -0.1603 -0.1279 -0.7101
v  -0.0890 -0.1848 -0.7101
v  0.0000 -0.2051 -0.7101
v  0.0890 -0.1848 -0.7101
v  0.1603 -0.1279 -0.7101
v  0.1999 -0.0456 -0.7101
v  0.1999 0.0456 -0.7101
v  0.1603 0.1279 -0.7101
v  0.0890 0.1848 -0.7101
v  -0.0000 0.1972 -1.4335
v  -0.0855 0.1776 -1.4335
v  -0.1541 0.1229 -1.4335
v  -0.1922 0.0439 -1.4335
v  -0.1922 -0.0439 -1.4335
v  -0.1541 -0.1229 -1.4335
v  -0.0855 -0.1776 -1.4335
v  0.0000 -0.1972 -1.4335
v  0.0855 -0.1776 -1.4335
v  0.1541 -0.1229 -1.4335
v  0.1922 -0.0439 -1.4335
v  0.1922 0.0439 -1.4335
v  0.1541 0.1229 -1.4335
v  0.0855 0.1776 -1.4335
v  -0.0000 0.1308 -2.2482
v  -0.0568 0.1179 -2.2482
v  -0.1023 0.0816 -2.2482
v  -0.1275 0.0291 -2.2482
v  -0.1275 -0.0291 -2.2482
v  -0.1023 -0.0816 -2.2482
v  -0.0568 -0.1179 -2.2482
v  0.0000 -0.1308 -2.2482
v  0.0568 -0.1179 -2.2482
v  0.1023 -0.0816 -2.2482
v  0.1275 -0.0291 -2.2482
v  0.1275 0.0291 -2.2482
v  0.1023 0.0816 -2.2482
v  0.0568 0.1179 -2.2482
v  -0.0000 0.0842 -3.0403
v  -0.0365 0.0759 -3.0403
v  -0.0658 0.0525 -3.0403
v  -0.0821 0.0187 -3.0403
v  -0.0821 -0.0187 -3.0403
v  -0.0658 -0.0525 -3.0403
v  -0.0365 -0.0759 -3.0403
v  0.0000 -0.0842 -3.0403
v  0.0365 -0.0759 -3.0403
v  0.0658 -0.0525 -3.0403
v  0.0821 -0.0187 -3.0403
v  0.0821 0.0187 -3.0403
v  0.0658 0.0525 -3.0403
v  0.0365 0.0759 -3.0403
v  0.0000 0.0550 -3.6442
v  -0.0239 0.0496 -3.6442
v  -0.0430 0.0343 -3.6442
v  -0.0536 0.0122 -3.6442
v  -0.0536 -0.0122 -3.6442
v  -0.0430 -0.0343 -3.6442
v  -0.0239 -0.0496 -3.6442
v  0.0000 -0.0550 -3.6442
v  0.0239 -0.0496 -3.6442
v  0.0430 -0.0343 -3.6442
v  0.0536 -0.0122 -3.6442
v  0.0536 0.0122 -3.6442
v  0.0430 0.0343 -3.6442
v  0.0239 0.0496 -3.6442
v  -0.0000 0.0000 -3.8740
# 86 vertices

vn -0.0000 -0.0000 1.0000
vn 0.0000 0.9379 0.3469
vn -0.4069 0.8450 0.3469
vn -0.7333 0.5848 0.3469
vn -0.9144 0.2087 0.3469
vn -0.9144 -0.2087 0.3469
vn -0.7333 -0.5848 0.3469
vn -0.4069 -0.8450 0.3469
vn 0.0000 -0.9379 0.3469
vn 0.4069 -0.8450 0.3469
vn 0.7333 -0.5848 0.3469
vn 0.9144 -0.2087 0.3469
vn 0.9144 0.2087 0.3469
vn 0.7333 0.5848 0.3469
vn 0.4069 0.8450 0.3469
vn -0.0000 0.9974 0.0715
vn -0.4328 0.8987 0.0715
vn -0.7798 0.6219 0.0715
vn -0.9724 0.2220 0.0715
vn -0.9724 -0.2219 0.0715
vn -0.7798 -0.6219 0.0715
vn -0.4328 -0.8987 0.0715
vn 0.0000 -0.9974 0.0715
vn 0.4328 -0.8987 0.0715
vn 0.7798 -0.6219 0.0715
vn 0.9724 -0.2220 0.0715
vn 0.9724 0.2220 0.0715
vn 0.7798 0.6219 0.0715
vn 0.4328 0.8987 0.0715
vn 0.0000 0.9989 -0.0458
vn -0.4334 0.9000 -0.0458
vn -0.7810 0.6228 -0.0458
vn -0.9739 0.2223 -0.0458
vn -0.9739 -0.2223 -0.0458
vn -0.7810 -0.6228 -0.0458
vn -0.4334 -0.9000 -0.0458
vn 0.0000 -0.9989 -0.0458
vn 0.4334 -0.9000 -0.0458
vn 0.7810 -0.6228 -0.0458
vn 0.9739 -0.2223 -0.0458
vn 0.9739 0.2223 -0.0458
vn 0.7810 0.6228 -0.0458
vn 0.4334 0.9000 -0.0458
vn 0.0000 0.9975 -0.0701
vn -0.4328 0.8988 -0.0701
vn -0.7799 0.6220 -0.0701
vn -0.9725 0.2220 -0.0701
vn -0.9725 -0.2220 -0.0701
vn -0.7799 -0.6220 -0.0701
vn -0.4328 -0.8988 -0.0701
vn 0.0000 -0.9975 -0.0701
vn 0.4328 -0.8988 -0.0701
vn 0.7799 -0.6220 -0.0701
vn 0.9725 -0.2220 -0.0701
vn 0.9725 0.2220 -0.0701
vn 0.7799 0.6220 -0.0701
vn 0.4328 0.8988 -0.0701
vn -0.0000 0.9986 -0.0536
vn -0.4333 0.8997 -0.0536
vn -0.7807 0.6226 -0.0536
vn -0.9735 0.2222 -0.0536
vn -0.9735 -0.2222 -0.0536
vn -0.7807 -0.6226 -0.0536
vn -0.4333 -0.8997 -0.0536
vn 0.0000 -0.9986 -0.0536
vn 0.4333 -0.8997 -0.0536
vn 0.7807 -0.6226 -0.0536
vn 0.9735 -0.2222 -0.0536
vn 0.9735 0.2222 -0.0536
vn 0.7807 0.6226 -0.0536
vn 0.4333 0.8997 -0.0536
vn 0.0000 0.9902 -0.1394
vn -0.4296 0.8922 -0.1394
vn -0.7742 0.6174 -0.1394
vn -0.9654 0.2203 -0.1394
vn -0.9654 -0.2203 -0.1394
vn -0.7742 -0.6174 -0.1394
vn -0.4296 -0.8922 -0.1394
vn -0.0000 -0.9902 -0.1394
vn 0.4297 -0.8922 -0.1394
vn 0.7742 -0.6174 -0.1394
vn 0.9654 -0.2203 -0.1394
vn 0.9654 0.2203 -0.1394
vn 0.7742 0.6174 -0.1394
vn 0.4296 0.8922 -0.1394
vn -0.0000 -0.0000 -1.0000
# 86 vertex normals

vt 0.0000 1.0000 0.0000
vt 0.0000 0.8571 0.0000
vt 0.0714 0.8571 0.0000
vt 0.0714 1.0000 0.0000
vt 0.1429 0.8571 0.0000
vt 0.1429 1.0000 0.0000
vt 0.2143 0.8571 0.0000
vt 0.2143 1.0000 0.0000
vt 0.2857 0.8571 0.0000
vt 0.2857 1.0000 0.0000
vt 0.3571 0.8571 0.0000
vt 0.3571 1.0000 0.0000
vt 0.4286 0.8571 0.0000
vt 0.4286 1.0000 0.0000
vt 0.5000 0.8571 0.0000
vt 0.5000 1.0000 0.0000
vt 0.5714 0.8571 0.0000
vt 0.5714 1.0000 0.0000
vt 0.6429 0.8571 0.0000
vt 0.6429 1.0000 0.0000
vt 0.7143 0.8571 0.0000
vt 0.7143 1.0000 0.0000
vt 0.7857 0.8571 0.0000
vt 0.7857 1.0000 0.0000
vt 0.8571 0.8571 0.0000
vt 0.8571 1.0000 0.0000
vt 0.9286 0.8571 0.0000
vt 0.9286 1.0000 0.0000
vt 1.0000 0.8571 0.0000
vt 0.0000 0.7143 0.0000
vt 0.0714 0.7143 0.0000
vt 0.1429 0.7143 0.0000
vt 0.2143 0.7143 0.0000
vt 0.2857 0.7143 0.0000
vt 0.3571 0.7143 0.0000
vt 0.4286 0.7143 0.0000
vt 0.5000 0.7143 0.0000
vt 0.5714 0.7143 0.0000
vt 0.6429 0.7143 0.0000
vt 0.7143 0.7143 0.0000
vt 0.7857 0.7143 0.0000
vt 0.8571 0.7143 0.0000
vt 0.9286 0.7143 0.0000
vt 1.0000 0.7143 0.0000
vt 0.0000 0.5714 0.0000
vt 0.0714 0.5714 0.0000
vt 0.1429 0.5714 0.0000
vt 0.2143 0.5714 0.0000
vt 0.2857 0.5714 0.0000
vt 0.3571 0.5714 0.0000
vt 0.4286 0.5714 0.0000
vt 0.5000 0.5714 0.0000
vt 0.5714 0.5714 0.0000
vt 0.6429 0.5714 0.0000
vt 0.7143 0.5714 0.0000
vt 0.7857 0.5714 0.0000
vt 0.8571 0.5714 0.0000
vt 0.9286 0.5714 0.0000
vt 1.0000 0.5714 0.0000
vt 0.0000 0.4286 0.0000
vt 0.0714 0.4286 0.0000
vt 0.1429 0.4286 0.0000
vt 0.2143 0.4286 0.0000
vt 0.2857 0.4286 0.0000
vt 0.3571 0.4286 0.0000
vt 0.4286 0.4286 0.0000
vt 0.5000 0.4286 0.0000
vt 0.5714 0.4286 0.0000
vt 0.6429 0.4286 0.0000
vt 0.7143 0.4286 0.0000
vt 0.7857 0.4286 0.0000
vt 0.8571 0.4286 0.0000
vt 0.9286 0.4286 0.0000
vt 1.0000 0.4286 0.0000
vt 0.0000 0.2857 0.0000
vt 0.0714 0.2857 0.0000
vt 0.1429 0.2857 0.0000
vt 0.2143 0.2857 0.0000
vt 0.2857 0.2857 0.0000
vt 0.3571 0.2857 0.0000
vt 0.4286 0.2857 0.0000
vt 0.5000 0.2857 0.0000
vt 0.5714 0.2857 0.0000
vt 0.6429 0.2857 0.0000
vt 0.7143 0.2857 0.0000
vt 0.7857 0.2857 0.0000
vt 0.8571 0.2857 0.0000
vt 0.9286 0.2857 0.0000
vt 1.0000 0.2857 0.0000
vt 0.0000 0.1429 0.0000
vt 0.0714 0.1429 0.0000
vt 0.1429 0.1429 0.0000
vt 0.2143 0.1429 0.0000
vt 0.2857 0.1429 0.0000
vt 0.3571 0.1429 0.0000
vt 0.4286 0.1429 0.0000
vt 0.5000 0.1429 0.0000
vt 0.5714 0.1429 0.0000
vt 0.6429 0.1429 0.0000
vt 0.7143 0.1429 0.0000
vt 0.7857 0.1429 0.0000
vt 0.8571 0.1429 0.0000
vt 0.9286 0.1429 0.0000
vt 1.0000 0.1429 0.0000
vt 0.0000 0.0000 0.0000
vt 0.0714 0.0000 0.0000
vt 0.1429 0.0000 0.0000
vt 0.2143 0.0000 0.0000
vt 0.2857 0.0000 0.0000
vt 0.3571 0.0000 0.0000
vt 0.4286 0.0000 0.0000
vt 0.5000 0.0000 0.0000
vt 0.5714 0.0000 0.0000
vt 0.6429 0.0000 0.0000
vt 0.7143 0.0000 0.0000
vt 0.7857 0.0000 0.0000
vt 0.8571 0.0000 0.0000
vt 0.9286 0.0000 0.0000
# 118 texture coords

g Sphere001
usemtl wire_115115115
s 1
f 1/1/1 2/2/2 3/3/3 
f 1/4/1 3/3/3 4/5/4 
f 1/6/1 4/5/4 5/7/5 
f 1/8/1 5/7/5 6/9/6 
f 1/10/1 6/9/6 7/11/7 
f 1/12/1 7/11/7 8/13/8 
f 1/14/1 8/13/8 9/15/9 
f 1/16/1 9/15/9 10/17/10 
f 1/18/1 10/17/10 11/19/11 
f 1/20/1 11/19/11 12/21/12 
f 1/22/1 12/21/12 13/23/13 
f 1/24/1 13/23/13 14/25/14 
f 1/26/1 14/25/14 15/27/15 
f 1/28/1 15/27/15 2/29/2 
f 2/2/2 16/30/16 17/31/17 3/3/3 
f 3/3/3 17/31/17 18/32/18 4/5/4 
f 4/5/4 18/32/18 19/33/19 5/7/5 
f 5/7/5 19/33/19 20/34/20 6/9/6 
f 6/9/6 20/34/20 21/35/21 7/11/7 
f 7/11/7 21/35/21 22/36/22 8/13/8 
f 8/13/8 22/36/22 23/37/23 9/15/9 
f 9/15/9 23/37/23 24/38/24 10/17/10 
f 10/17/10 24/38/24 25/39/25 11/19/11 
f 11/19/11 25/39/25 26/40/26 12/21/12 
f 12/21/12 26/40/26 27/41/27 13/23/13 
f 13/23/13 27/41/27 28/42/28 14/25/14 
f 14/25/14 28/42/28 29/43/29 15/27/15 
f 15/27/15 29/43/29 16/44/16 2/29/2 
f 16/30/16 30/45/30 31/46/31 17/31/17 
f 17/31/17 31/46/31 32/47/32 18/32/18 
f 18/32/18 32/47/32 33/48/33 19/33/19 
f 19/33/19 33/48/33 34/49/34 20/34/20 
f 20/34/20 34/49/34 35/50/35 21/35/21 
f 21/35/21 35/50/35 36/51/36 22/36/22 
f 22/36/22 36/51/36 37/52/37 23/37/23 
f 23/37/23 37/52/37 38/53/38 24/38/24 
f 24/38/24 38/53/38 39/54/39 25/39/25 
f 25/39/25 39/54/39 40/55/40 26/40/26 
f 26/40/26 40/55/40 41/56/41 27/41/27 
f 27/41/27 41/56/41 42/57/42 28/42/28 
f 28/42/28 42/57/42 43/58/43 29/43/29 
f 29/43/29 43/58/43 30/59/30 16/44/16 
f 30/45/30 44/60/44 45/61/45 31/46/31 
f 31/46/31 45/61/45 46/62/46 32/47/32 
f 32/47/32 46/62/46 47/63/47 33/48/33 
f 33/48/33 47/63/47 48/64/48 34/49/34 
f 34/49/34 48/64/48 49/65/49 35/50/35 
f 35/50/35 49/65/49 50/66/50 36/51/36 
f 36/51/36 50/66/50 51/67/51 37/52/37 
f 37/52/37 51/67/51 52/68/52 38/53/38 
f 38/53/38 52/68/52 53/69/53 39/54/39 
f 39/54/39 53/69/53 54/70/54 40/55/40 
f 40/55/40 54/70/54 55/71/55 41/56/41 
f 41/56/41 55/71/55 56/72/56 42/57/42 
f 42/57/42 56/72/56 57/73/57 43/58/43 
f 43/58/43 57/73/57 44/74/44 30/59/30 
f 44/60/44 58/75/58 59/76/59 45/61/45 
f 45/61/45 59/76/59 60/77/60 46/62/46 
f 46/62/46 60/77/60 61/78/61 47/63/47 
f 47/63/47 61/78/61 62/79/62 48/64/48 
f 48/64/48 62/79/62 63/80/63 49/65/49 
f 49/65/49 63/80/63 64/81/64 50/66/50 
f 50/66/50 64/81/64 65/82/65 51/67/51 
f 51/67/51 65/82/65 66/83/66 52/68/52 
f 52/68/52 66/83/66 67/84/67 53/69/53 
f 53/69/53 67/84/67 68/85/68 54/70/54 
f 54/70/54 68/85/68 69/86/69 55/71/55 
f 55/71/55 69/86/69 70/87/70 56/72/56 
f 56/72/56 70/87/70 71/88/71 57/73/57 
f 57/73/57 71/88/71 58/89/58 44/74/44 
f 58/75/58 72/90/72 73/91/73 59/76/59 
f 59/76/59 73/91/73 74/92/74 60/77/60 
f 60/77/60 74/92/74 75/93/75 61/78/61 
f 61/78/61 75/93/75 76/94/76 62/79/62 
f 62/79/62 76/94/76 77/95/77 63/80/63 
f 63/80/63 77/95/77 78/96/78 64/81/64 
f 64/81/64 78/96/78 79/97/79 65/82/65 
f 65/82/65 79/97/79 80/98/80 66/83/66 
f 66/83/66 80/98/80 81/99/81 67/84/67 
f 67/84/67 81/99/81 82/100/82 68/85/68 
f 68/85/68 82/100/82 83/101/83 69/86/69 
f 69/86/69 83/101/83 84/102/84 70/87/70 
f 70/87/70 84/102/84 85/103/85 71/88/71 
f 71/88/71 85/103/85 72/104/72 58/89/58 
f 86/105/86 73/91/73 72/90/72 
f 86/106/86 74/92/74 73/91/73 
f 86/107/86 75/93/75 74/92/74 
f 86/108/86 76/94/76 75/93/75 
f 86/109/86 77/95/77 76/94/76 
f 86/110/86 78/96/78 77/95/77 
f 86/111/86 79/97/79 78/96/78 
f 86/112/86 80/98/80 79/97/79 
f 86/113/86 81/99/81 80/98/80 
f 86/114/86 82/100/82 81/99/81 
f 86/115/86 83/101/83 82/100/82 
f 86/116/86 84/102/84 83/101/83 
f 86/117/86 85/103/85 84/102/84 
f 86/118/86 72/104/72 85/103/85 
# 70 polygons - 28 triangles

